<mxfile host="app.diagrams.net" modified="2022-08-23T02:23:42.068Z" agent="5.0 (Macintosh; Intel Mac OS X 10_15_7) AppleWebKit/537.36 (KHTML, like Gecko) Chrome/104.0.0.0 Safari/537.36" etag="mDeKECAk3WvC4FhTNLnY" version="20.2.5" type="github">
  <diagram id="-kwm4zXC5V6IKQWHQNKP" name="Page-1">
    <mxGraphModel dx="930" dy="450" grid="1" gridSize="10" guides="1" tooltips="1" connect="1" arrows="1" fold="1" page="1" pageScale="1" pageWidth="850" pageHeight="1100" math="0" shadow="0">
      <root>
        <mxCell id="0" />
        <mxCell id="1" parent="0" />
        <mxCell id="14TpTyOr0IPBeoI9CRgX-4" value="" style="ellipse;whiteSpace=wrap;html=1;fillColor=#dae8fc;strokeColor=#6c8ebf;" parent="1" vertex="1">
          <mxGeometry x="20" y="170" width="589" height="200" as="geometry" />
        </mxCell>
        <mxCell id="14TpTyOr0IPBeoI9CRgX-1" value="" style="ellipse;whiteSpace=wrap;html=1;fillColor=#d5e8d4;strokeColor=#82b366;" parent="1" vertex="1">
          <mxGeometry x="120" y="180" width="490" height="180" as="geometry" />
        </mxCell>
        <mxCell id="14TpTyOr0IPBeoI9CRgX-2" value="" style="ellipse;whiteSpace=wrap;html=1;fillColor=#ffe6cc;strokeColor=#d79b00;" parent="1" vertex="1">
          <mxGeometry x="230" y="195" width="379" height="150" as="geometry" />
        </mxCell>
        <mxCell id="14TpTyOr0IPBeoI9CRgX-3" value="" style="ellipse;whiteSpace=wrap;html=1;fillColor=#e1d5e7;strokeColor=#9673a6;" parent="1" vertex="1">
          <mxGeometry x="329" y="213.75" width="280" height="112.5" as="geometry" />
        </mxCell>
        <mxCell id="14TpTyOr0IPBeoI9CRgX-5" value="深度神经网络" style="text;html=1;strokeColor=none;fillColor=none;align=center;verticalAlign=middle;whiteSpace=wrap;rounded=0;fontSize=14;" parent="1" vertex="1">
          <mxGeometry x="421.5" y="255" width="95" height="30" as="geometry" />
        </mxCell>
        <mxCell id="14TpTyOr0IPBeoI9CRgX-6" value="人工智能" style="text;html=1;strokeColor=none;fillColor=none;align=center;verticalAlign=middle;whiteSpace=wrap;rounded=0;fontSize=14;" parent="1" vertex="1">
          <mxGeometry x="25" y="255" width="95" height="30" as="geometry" />
        </mxCell>
        <mxCell id="14TpTyOr0IPBeoI9CRgX-7" value="机器学习" style="text;html=1;strokeColor=none;fillColor=none;align=center;verticalAlign=middle;whiteSpace=wrap;rounded=0;fontSize=14;" parent="1" vertex="1">
          <mxGeometry x="135" y="255" width="95" height="30" as="geometry" />
        </mxCell>
        <mxCell id="14TpTyOr0IPBeoI9CRgX-8" value="神经网络" style="text;html=1;strokeColor=none;fillColor=none;align=center;verticalAlign=middle;whiteSpace=wrap;rounded=0;fontSize=14;" parent="1" vertex="1">
          <mxGeometry x="234" y="255" width="95" height="30" as="geometry" />
        </mxCell>
        <mxCell id="uSD6eX7qik3MyBaER6Iy-1" value="机器学习" style="ellipse;whiteSpace=wrap;html=1;" vertex="1" parent="1">
          <mxGeometry x="240" y="440" width="120" height="80" as="geometry" />
        </mxCell>
        <mxCell id="uSD6eX7qik3MyBaER6Iy-2" value="无监督学习" style="ellipse;whiteSpace=wrap;html=1;" vertex="1" parent="1">
          <mxGeometry x="240" y="560" width="120" height="80" as="geometry" />
        </mxCell>
        <mxCell id="uSD6eX7qik3MyBaER6Iy-3" value="有监督学习" style="ellipse;whiteSpace=wrap;html=1;" vertex="1" parent="1">
          <mxGeometry x="80" y="560" width="120" height="80" as="geometry" />
        </mxCell>
        <mxCell id="uSD6eX7qik3MyBaER6Iy-4" value="强化学习" style="ellipse;whiteSpace=wrap;html=1;" vertex="1" parent="1">
          <mxGeometry x="400" y="560" width="120" height="80" as="geometry" />
        </mxCell>
      </root>
    </mxGraphModel>
  </diagram>
</mxfile>
